<svg xmlns="http://www.w3.org/2000/svg" width="24" height="24" viewBox="0 0 24 24" fill="none" stroke="currentColor" stroke-width="2" stroke-linecap="round" stroke-linejoin="round" class="lucide lucide-map-pinned"><path d="M18 8c0 4.5-6 9-6 9s-6-4.5-6-9a6 6 0 0 1 12 0Z"/><circle cx="12" cy="8" r="2"/><path d="M8.83 17.17a1 1 0 0 0 .34 1.34l3.46 2.05a1 1 0 0 0 1.02-.02l3.53-2.06a1 1 0 0 0 .32-1.33c-.2-.33-.55-.52-.9-.52H9.72c-.36 0-.7.2-.9.52Z"/><path d="m14 22 4-4"/><path d="m10 22-4-4"/></svg>
